<svg width="185" height="25" viewBox="0 0 185 25" fill="none" xmlns="http://www.w3.org/2000/svg">
<path fill-rule="evenodd" clip-rule="evenodd" d="M21.4302 11.7404C20.8102 12.6804 20.0502 13.8104 19.4002 14.8204L27.1302 13.7204L27.7302 13.6204C29.1402 13.4204 29.6402 12.1104 29.7402 11.8104C31.2902 8.41035 32.8402 8.11035 35.6502 7.55035L35.9702 7.49035C37.9038 7.06396 39.7337 6.25847 41.354 5.12046C42.9743 3.98246 44.353 2.53451 45.4102 0.860352L36.4702 2.36035C26.6302 4.18035 24.4202 7.00035 22.7202 9.81035C22.5702 10.0604 22.0702 10.8104 21.4402 11.7504L21.4302 11.7404ZM25.1302 21.0404C25.1302 21.0404 33.6602 20.0404 36.7702 19.0404C42.1002 17.2304 43.9002 13.2104 43.9002 13.2104C43.9002 13.2104 35.7702 14.1104 32.1502 15.7204C32.0802 15.7504 31.9902 15.7904 31.8802 15.8204C30.9502 16.1704 28.7202 17.0004 25.1302 21.0404ZM26.6302 16.1204C26.6302 16.1204 25.3302 19.2404 20.2002 21.6504C19.9402 21.7804 19.5802 21.9104 19.2202 22.0504L18.7002 22.2504L0.220215 24.8604L7.95021 12.6104C9.86022 9.70035 14.2802 6.58035 21.1102 5.08035L14.0802 15.8204C14.0402 15.9104 13.9602 16.0204 13.8802 16.1604C13.7502 16.3604 13.5902 16.5904 13.4802 16.8304L11.3702 20.0404C11.0702 20.6404 11.2702 20.9404 11.7702 20.9404L12.1002 20.9104C13.8302 20.7404 14.3202 20.6904 15.0802 19.8404C15.3802 19.5404 16.4802 18.2404 17.0902 17.4304L23.5202 16.5304C25.3202 16.2304 26.6302 16.1304 26.6302 16.1304V16.1204ZM101.34 11.3004C101.34 15.8204 105.16 16.5304 106.77 16.5304C108.37 16.5304 110.99 15.8304 111.79 13.3104H113.19C112.19 16.4304 109.68 17.5304 106.77 17.5304C103.05 17.5304 100.04 15.5304 100.04 11.2004C100.04 6.89035 103.05 4.88035 106.77 4.88035C109.67 4.88035 112.49 6.38035 113.19 9.40035H111.89C111.09 6.79035 108.47 6.08035 106.77 6.08035C105.06 6.08035 101.34 6.88035 101.34 11.3004ZM55.3502 5.18035H53.9502V17.4304H64.7902V16.2304H55.3502V5.17035V5.18035ZM68.2102 5.18035H66.8002V17.3304H68.2002V5.18035H68.2102ZM72.1202 17.4304H70.7202V5.18035H82.0602V6.48035H72.1202V10.7004H81.5602V11.8004H72.1202V17.4304ZM85.4802 11.7104H95.5202V10.5104H85.4802V6.47035H95.8202V5.17035H84.0702V17.4204H95.9202V16.2204H85.4802V11.7004V11.7104ZM116.51 10.6104H125.45V5.17035H126.85V17.4204H125.45V11.7004H116.51V17.4204H115.21V5.18035H116.51V10.6004V10.6104ZM183.09 10.6104H174.15V5.17035H172.85V17.4204H174.15V11.7004H183.09V17.4204H184.49V5.18035H183.09V10.6004V10.6104ZM135.19 17.6304C139.2 17.6304 141.21 15.6304 141.21 12.7104H141.41V5.18035H140.01V12.4104C140.01 15.8204 136.69 16.4304 135.29 16.4304C133.79 16.4304 130.57 15.8304 130.57 12.4104V5.18035H129.17V12.7104C129.17 15.6204 131.17 17.6304 135.19 17.6304ZM154.17 11.3004C155.37 10.8004 156.07 9.80035 156.07 8.50035C156.07 6.38035 154.67 5.18035 152.26 5.18035H143.42V17.3304H144.82V11.8104H151.86C153.86 11.8104 154.66 13.0104 154.66 14.9104V17.4304H156.07V14.7204C156.07 12.8104 155.27 11.8104 154.17 11.3004ZM152.46 10.6004H144.83V6.48035H152.46C153.86 6.48035 154.66 7.18035 154.66 8.59035C154.66 9.99035 153.86 10.6004 152.46 10.6004ZM164.41 16.5304C162.81 16.5304 158.99 15.8304 158.99 11.3004C158.99 6.89035 162.7 6.08035 164.41 6.08035C166.11 6.08035 168.73 6.78035 169.53 9.40035H170.83C170.13 6.38035 167.33 4.88035 164.41 4.88035C160.69 4.88035 157.68 6.88035 157.68 11.2004C157.68 15.5204 160.69 17.5304 164.41 17.5304C167.32 17.5304 169.83 16.4304 170.84 13.3104H169.44C168.63 15.8204 166.02 16.5304 164.41 16.5304ZM97.7302 15.9304H99.2202V17.4304H97.7202V15.9304H97.7302Z" fill="#764C36"/>
</svg>
